<?xml version="1.0" encoding="utf-8"?>
<!-- Generator: Adobe Illustrator 18.0.0, SVG Export Plug-In . SVG Version: 6.00 Build 0)  -->
<!DOCTYPE svg PUBLIC "-//W3C//DTD SVG 1.1//EN" "http://www.w3.org/Graphics/SVG/1.1/DTD/svg11.dtd">
<svg version="1.1" id="图层_1" xmlns="http://www.w3.org/2000/svg" xmlns:xlink="http://www.w3.org/1999/xlink" x="0px" y="0px"
	 viewBox="0 0 512 512" enable-background="new 0 0 512 512" xml:space="preserve">
<g>
	<path fill="#231815" d="M255.8,0C114.5,0-0.2,114.6-0.2,256s114.6,256,256,256s256-114.6,256-256S397.2,0,255.8,0z M255.7,473.5
		c-120.2,0-217.6-97.4-217.6-217.6S135.5,38.3,255.7,38.3s217.6,97.4,217.6,217.6S375.9,473.5,255.7,473.5z"/>
</g>
<g>
	<path fill="#231815" d="M102.4,216.1l84.9-49c7-4,14.9-6.2,23-6.2c8,0,15.4,2.1,22.3,6.2c14.2,8.2,22.4,23.4,22.4,39.8v39.6
		c3-12.6,11.2-23.8,22.6-30.4l85.2-49c7-4,15.1-6.2,23.2-6.2c8,0,16,2.1,23,6.2c14.2,8.2,23,23.4,23,39.8v97.5
		c0,16.4-8.8,31.7-23,39.9c-7,4-14.9,6.2-23,6.2c-8.1,0-16-2.1-23-6.2l-85.4-48.9c-11.4-6.6-19.6-17.8-22.6-30.4v39.5
		c0,16.4-8.2,31.7-22.4,39.9c-7,4-14.6,6.2-22.7,6.2c-8.1,0-15.9-2.1-22.9-6.2l-84.7-48.9c-14.1-8.2-22.9-23.3-22.9-39.7
		C79.5,239.5,88.3,224.3,102.4,216.1z"/>
</g>
</svg>
